{"title":"The Quiet Ones 2014 HDRip x264 AC3-KingStoner","uid":10196585,"size":1490868148,"categoryP":"video","categoryS":"movies","magnet":"?xt=urn:btih:112e6afff9aceb3d6a4a1029b5f79d9e44d9737d&amp;dn=The+Quiet+Ones+2014+HDRip+x264+AC3-KingStoner&amp;tr=udp%3A%2F%2Ftracker.openbittorrent.com%3A80&amp;tr=udp%3A%2F%2Fopen.demonii.com%3A1337&amp;tr=udp%3A%2F%2Ftracker.coppersurfer.tk%3A6969&amp;tr=udp%3A%2F%2Fexodus.desync.com%3A6969","seeders":2,"leechers":0,"uploader":"xxxlavalxxx","files":-1,"time":1400700388,"description":" &lt;a href=&quot;\nhttp://www.imdb.com/title/tt2235779/&quot; rel=&quot;nofollow&quot; target=&quot;_NEW&quot;&gt;\nhttp://www.imdb.com/title/tt2235779/&lt;/a&gt;\n\n\nA university professor and a team of students conduct an experiment on a young woman, uncovering terrifyingly dark, unexpected forces in the process.\n\nDirector: John Pogue\nWriters: Craig Rosenberg (screenplay), Oren Moverman (screenplay)\nStars: Jared Harris, Sam Claflin, Olivia Cooke \nGenres: Horror\nCountry: USA | UK\nLanguage: English\n\n\nFormat                                   : Matroska\nFormat version                           : Version 2\nFile size                                : 1.39 GiB\nDuration                                 : 1h 33mn\nOverall bit rate                         : 2 135 Kbps\nEncoded date                             : UTC 2014-05-18 07:16:14\nWriting application                      : Lavf54.6.100\nWriting library                          : Lavf54.6.100\n\nVideo\nID                                       : 1\nFormat                                   : AVC\nFormat/Info                              : Advanced Video Codec\nFormat profile                           : &lt;a class=&quot;__cf_email__&quot; href=&quot;/cdn-cgi/l/email-protection&quot; data-cfemail=&quot;6d2f0c1e08010403082d215c435e&quot;&gt;[email&amp;#160;protected]&lt;/a&gt;&lt;script data-cfhash='f9e31' type=&quot;text/javascript&quot;&gt;\n/* &lt;![CDATA[ */!function(){try{var t=&quot;currentScript&quot;in document?document.currentScript:function(){for(var t=document.getElementsByTagName(&quot;script&quot;),e=t.length;e--;)if(t[e].getAttribute(&quot;data-cfhash&quot;))return t[e]}();if(t&amp;&amp;t.previousSibling){var e,r,n,i,c=t.previousSibling,a=c.getAttribute(&quot;data-cfemail&quot;);if(a){for(e=&quot;&quot;,r=parseInt(a.substr(0,2),16),n=2;a.length-n;n+=2)i=parseInt(a.substr(n,2),16)^r,e+=String.fromCharCode(i);e=document.createTextNode(e),c.parentNode.replaceChild(e,c)}t.parentNode.removeChild(t);}}catch(u){}}()/* ]]&gt; */&lt;/script&gt;\nFormat settings, CABAC                   : No\nFormat settings, ReFrames                : 2 frames\nCodec ID                                 : V_MPEG4/ISO/AVC\nDuration                                 : 1h 33mn\nBit rate                                 : 2 000 Kbps\nWidth                                    : 720 pixels\nHeight                                   : 390 pixels\nDisplay aspect ratio                     : 16:9\nOriginal display aspect ratio            : 16:9\nFrame rate mode                          : Variable\nFrame rate                               : 25.000 fps\nColor space                              : YUV\nChroma subsampling                       : 4:2:0\nBit depth                                : 8 bits\nScan type                                : Progressive\nBits/(Pixel*Frame)                       : 0.285\nStream size                              : 1.28 GiB (92%)\nWriting library                          : x264 core 119\nEncoding settings                        : cabac=0 / ref=2 / deblock=1:0:0 / analyse=0x1:0x111 / me=umh / subme=6 / psy=1 / psy_rd=1.00:0.00 / mixed_ref=1 / me_range=16 / chroma_me=1 / trellis=0 / 8x8dct=0 / cqm=0 / deadzone=21,11 / fast_pskip=1 / chroma_qp_offset=-2 / threads=6 / sliced_threads=0 / nr=0 / decimate=1 / interlaced=0 / bluray_compat=0 / constrained_intra=0 / bframes=0 / weightp=0 / keyint=250 / keyint_min=25 / scenecut=40 / intra_refresh=0 / rc_lookahead=40 / rc=abr / mbtree=1 / bitrate=2000 / ratetol=1.0 / qcomp=0.60 / qpmin=0 / qpmax=69 / qpstep=4 / ip_ratio=1.40 / aq=1:1.00\nLanguage                                 : English\nDefault                                  : Yes\nForced                                   : No\nEncoded date                             : UTC 2014-05-18 07:16:14\nHANDLER_NAME                             : Video Media Handler\n\nAudio\nID                                       : 2\nFormat                                   : AC-3\nFormat/Info                              : Audio Coding 3\nMode extension                           : CM (complete main)\nCodec ID                                 : A_AC3\nDuration                                 : 1h 33mn\nBit rate mode                            : Constant\nBit rate                                 : 128 Kbps\nChannel(s)                               : 2 channels\nChannel positions                        : Front: L R\nSampling rate                            : 44.1 KHz\nBit depth                                : 16 bits\nCompression mode                         : Lossy\nDelay relative to video                  : 1mn 5s\nStream size                              : 85.2 MiB (6%)\nDefault                                  : Yes\nForced                                   : No\n\n\n\n\nscreens\n &lt;a href=&quot;\nhttp://i.imgur.com/OHhzFDC.jpg&quot; rel=&quot;nofollow&quot; target=&quot;_NEW&quot;&gt;\nhttp://i.imgur.com/OHhzFDC.jpg&lt;/a&gt; &lt;a href=&quot;\nhttp://i.imgur.com/NHRNo4u.jpg&quot; rel=&quot;nofollow&quot; target=&quot;_NEW&quot;&gt;\nhttp://i.imgur.com/NHRNo4u.jpg&lt;/a&gt; &lt;a href=&quot;\nhttp://i.imgur.com/hPNCjep.jpg&quot; rel=&quot;nofollow&quot; target=&quot;_NEW&quot;&gt;\nhttp://i.imgur.com/hPNCjep.jpg&lt;/a&gt; &lt;a href=&quot;\nhttp://i.imgur.com/UgeTs8H.jpg&quot; rel=&quot;nofollow&quot; target=&quot;_NEW&quot;&gt;\nhttp://i.imgur.com/UgeTs8H.jpg&lt;/a&gt;\n","torrent":{"xt":"urn:btih:112e6afff9aceb3d6a4a1029b5f79d9e44d9737d","amp;dn":"The+Quiet+Ones+2014+HDRip+x264+AC3-KingStoner","amp;tr":["udp%3A%2F%2Ftracker.openbittorrent.com%3A80","udp%3A%2F%2Fopen.demonii.com%3A1337","udp%3A%2F%2Ftracker.coppersurfer.tk%3A6969","udp%3A%2F%2Fexodus.desync.com%3A6969"],"infoHash":"112e6afff9aceb3d6a4a1029b5f79d9e44d9737d","infoHashBuffer":{"type":"Buffer","data":[17,46,106,255,249,172,235,61,106,74,16,41,181,247,157,158,68,217,115,125]},"announce":[],"urlList":[]}}